<svg viewBox="0 0 24 24" focusable="false" class="chakra-icon no-invert css-1lf3gor"><path d="M8.35355 11.8536C8.15829 12.0488 7.84171 12.0488 7.64645 11.8536C7.45118 11.6583 7.45118 11.3417 7.64645 11.1464L11.6464 7.14645C11.8417 6.95118 12.1583 6.95118 12.3536 7.14645L16.3536 11.1464C16.5488 11.3417 16.5488 11.6583 16.3536 11.8536C16.1583 12.0488 15.8417 12.0488 15.6464 11.8536L12 8.20711L8.35355 11.8536Z" fill="url(#paint0_linear_1701_2729)"></path><path d="M8.35355 16.8536C8.15829 17.0488 7.84171 17.0488 7.64645 16.8536C7.45118 16.6583 7.45118 16.3417 7.64645 16.1464L11.6464 12.1464C11.8417 11.9512 12.1583 11.9512 12.3536 12.1464L16.3536 16.1464C16.5488 16.3417 16.5488 16.6583 16.3536 16.8536C16.1583 17.0488 15.8417 17.0488 15.6464 16.8536L12 13.2071L8.35355 16.8536Z" fill="url(#paint1_linear_1701_2729)"></path><rect x="0.5" y="0.5" width="23" height="23" rx="11.5" stroke="#866AF6"></rect><defs><linearGradient id="paint0_linear_1701_2729" x1="7.57872" y1="11.6429" x2="16.2519" y2="11.2489" gradientUnits="userSpaceOnUse"><stop offset="0.227224" stop-color="#8B6DFF"></stop><stop offset="0.96875" stop-color="#FE8484"></stop></linearGradient><linearGradient id="paint1_linear_1701_2729" x1="7.57872" y1="16.6429" x2="16.2519" y2="16.2489" gradientUnits="userSpaceOnUse"><stop offset="0.227224" stop-color="#8B6DFF"></stop><stop offset="0.96875" stop-color="#FE8484"></stop></linearGradient></defs></svg>